<svg xmlns:xlink="http://www.w3.org/1999/xlink" width="20px" height="20px" viewBox="0 0 20 20" version="1.1" xmlns="http://www.w3.org/2000/svg"> <defs> <path d="M14.99,5 C9.47,5 5,9.48 5,15 C5,20.52 9.47,25 14.99,25 C20.52,25 25,20.52 25,15 C25,9.48 20.52,5 14.99,5 L14.99,5 Z M15,23 C10.58,23 7,19.42 7,15 C7,10.58 10.58,7 15,7 C19.42,7 23,10.58 23,15 C23,19.42 19.42,23 15,23 Z M15.5,10 L14,10 L14,16 L19.25,19.15 L20,17.92 L15.5,15.25 L15.5,10 Z" id="path-time"></path> </defs> <g id="UI" stroke="none" stroke-width="1" fill="none" fill-rule="evenodd"> <g id="-Main-Element" transform="translate(-233.000000, -2726.000000)"> <g id="Profile-Events-Card" transform="translate(188.000000, 2676.000000)"> <g id="content"> <g id="time" transform="translate(40.000000, 45.000000)"> <g id="3.-Icons/ic_schedule"> <mask id="mask-time" fill="white"> <use xlink:href="#path-time"></use> </mask> <g mask="url(#mask-time)" fill-rule="evenodd" fill="#FFFFFF"> <g transform="translate(2.000000, 2.000000)" id="White"> <rect x="0" y="0" width="26" height="26"></rect> </g> </g> </g> </g> </g> </g> </g> </g> </svg>