<?xml version="1.0" encoding="UTF-8" standalone="no"?>
<svg width="20px" height="20px" viewBox="0 0 20 20" version="1.1" xmlns="http://www.w3.org/2000/svg" xmlns:xlink="http://www.w3.org/1999/xlink">
    <!-- Generator: Sketch 47.1 (45422) - http://www.bohemiancoding.com/sketch -->
    <title>Icon</title>
    <desc>Created with Sketch.</desc>
    <defs>
        <path d="M24,9 L22,9 L22,18 L9,18 L9,20 C9,20.55 9.45,21 10,21 L21,21 L25,25 L25,10 C25,9.45 24.55,9 24,9 L24,9 Z M20,15 L20,6 C20,5.45 19.55,5 19,5 L6,5 C5.45,5 5,5.45 5,6 L5,20 L9,16 L19,16 C19.55,16 20,15.55 20,15 L20,15 Z" id="path-1"></path>
    </defs>
    <g id="Symbols" stroke="none" stroke-width="1" fill="none" fill-rule="evenodd">
        <g id="3.-Icons/ic_forum" transform="translate(-5.000000, -5.000000)">
            <mask id="mask-2" fill="white">
                <use xlink:href="#path-1"></use>
            </mask>
            <g id="Icon"></g>
        </g>
    </g>
</svg>

