<?xml version="1.0" encoding="UTF-8" standalone="no"?>
<svg width="24px" height="24px" viewBox="0 0 24 24" version="1.1" xmlns="http://www.w3.org/2000/svg" xmlns:xlink="http://www.w3.org/1999/xlink">
    <!-- Generator: Sketch 47.1 (45422) - http://www.bohemiancoding.com/sketch -->
    <title>3. Icons/ic_favorite_border</title>
    <desc>Created with Sketch.</desc>
    <defs>
        <path d="M17.4000004,1 C15.3120003,1 13.3080003,1.97200002 12.0000002,3.50800005 C10.6920002,1.97200002 8.68800018,1 6.60000014,1 C2.90400006,1 0,3.90400006 0,7.60000014 C0,12.1360002 4.08000008,15.8320003 10.2600002,21.4480004 L12.0000002,23.0200005 L13.7400003,21.4360004 C19.9200004,15.8320003 24.0000005,12.1360002 24.0000005,7.60000014 C24.0000005,3.90400006 21.0960004,1 17.4000004,1 L17.4000004,1 Z M12.1200003,19.6600004 L12.0000002,19.7800004 L11.8800002,19.6600004 C6.16800013,14.4880003 2.40000005,11.0680002 2.40000005,7.60000014 C2.40000005,5.20000009 4.20000009,3.40000005 6.60000014,3.40000005 C8.44800018,3.40000005 10.2480002,4.58800007 10.8840002,6.23200011 L13.1280003,6.23200011 C13.7520003,4.58800007 15.5520003,3.40000005 17.4000004,3.40000005 C19.8000004,3.40000005 21.6000004,5.20000009 21.6000004,7.60000014 C21.6000004,11.0680002 17.8320004,14.4880003 12.1200003,19.6600004 L12.1200003,19.6600004 Z" id="path-1"></path>
    </defs>
    <g id="Symbols" stroke="none" stroke-width="1" fill="none" fill-rule="evenodd">
        <g id="3.-Icons/ic_favorite_border">
            <mask id="mask-2" fill="white">
                <use xlink:href="#path-1"></use>
            </mask>
            <g id="Icon"></g>
            <g id="5.-Colors/Gray-85" mask="url(#mask-2)" fill="#D8D8D8">
                <rect id="Gray-85" x="0" y="0" width="24" height="24"></rect>
            </g>
        </g>
    </g>
</svg>