<?xml version="1.0" encoding="UTF-8" standalone="no"?>
<svg width="24px" height="24px" viewBox="0 0 24 24" version="1.1" xmlns="http://www.w3.org/2000/svg" xmlns:xlink="http://www.w3.org/1999/xlink">
    <!-- Generator: Sketch 47.1 (45422) - http://www.bohemiancoding.com/sketch -->
    <title>3. Icons/ic_search</title>
    <desc>Created with Sketch.</desc>
    <defs>
        <path d="M17.1526587,15.0943396 L16.0686106,15.0943396 L15.6843911,14.7238422 C17.0291595,13.1595197 17.838765,11.1286449 17.838765,8.9193825 C17.838765,3.99313894 13.8456261,0 8.9193825,0 C3.99313894,0 0,3.99313894 0,8.9193825 C0,13.8456261 3.99313894,17.838765 8.9193825,17.838765 C11.1286449,17.838765 13.1595197,17.0291595 14.7238422,15.6843911 L15.0943396,16.0686106 L15.0943396,17.1526587 L21.9554031,24 L24,21.9554031 L17.1526587,15.0943396 L17.1526587,15.0943396 Z M8.9193825,15.0943396 C5.5025729,15.0943396 2.74442539,12.3361921 2.74442539,8.9193825 C2.74442539,5.5025729 5.5025729,2.74442539 8.9193825,2.74442539 C12.3361921,2.74442539 15.0943396,5.5025729 15.0943396,8.9193825 C15.0943396,12.3361921 12.3361921,15.0943396 8.9193825,15.0943396 L8.9193825,15.0943396 Z" id="path-1"></path>
    </defs>
    <g id="Symbols" stroke="none" stroke-width="1" fill="none" fill-rule="evenodd">
        <g id="3.-Icons/ic_search">
            <mask id="mask-2" fill="white">
                <use xlink:href="#path-1"></use>
            </mask>
            <g id="Icon"></g>
            <g id="5.-Colors/Gray-85" mask="url(#mask-2)" fill="#D8D8D8">
                <rect id="Gray-85" x="0" y="0" width="24" height="24"></rect>
            </g>
        </g>
    </g>
</svg>