<?xml version="1.0" encoding="UTF-8" standalone="no"?>
<svg width="98px" height="16px" viewBox="0 0 98 16" version="1.1" xmlns="http://www.w3.org/2000/svg" xmlns:xlink="http://www.w3.org/1999/xlink">
    <g id="UI" stroke="none" stroke-width="1" fill="none" fill-rule="evenodd">
        <g id="-Main-Element" transform="translate(-661.000000, -1507.000000)" fill="#4D4D4D">
            <g id="Navigate-Card" transform="translate(-5.000000, 1469.000000)">
                <g id="content" transform="translate(30.000000, 0.000000)">
                    <path d="M639.952148,51.0996094 L646.515625,51.0996094 L646.515625,54 L636.181641,54 L636.181641,38.359375 L639.952148,38.359375 L639.952148,51.0996094 Z M658.843359,51.078125 L653.676367,51.078125 L652.774024,54 L648.745703,54 L654.482031,38.359375 L658.026953,38.359375 L663.80625,54 L659.756445,54 L658.843359,51.078125 Z M654.578711,48.1669922 L657.941016,48.1669922 L656.254492,42.7421875 L654.578711,48.1669922 Z M671.547071,38.359375 L675.038281,49.2412109 L678.51875,38.359375 L683.481641,38.359375 L683.481641,54 L679.700391,54 L679.700391,50.3476562 L680.065625,42.8710938 L676.284375,54 L673.792188,54 L670.000196,42.8603516 L670.36543,50.3476562 L670.36543,54 L666.594922,54 L666.594922,38.359375 L671.547071,38.359375 Z M687.527149,54 L687.527149,38.359375 L693.145313,38.359375 C695.157693,38.359375 696.688439,38.7281864 697.737598,39.4658203 C698.786757,40.2034542 699.311328,41.2740815 699.311328,42.6777344 C699.311328,43.4869832 699.125132,44.178057 698.752735,44.7509766 C698.380337,45.3238961 697.832491,45.7464179 697.10918,46.0185547 C697.92559,46.2333995 698.552212,46.6344372 698.989063,47.2216797 C699.425914,47.8089222 699.644336,48.5250609 699.644336,49.3701172 C699.644336,50.9026769 699.159152,52.0538698 698.18877,52.8237305 C697.218387,53.5935911 695.780739,53.985677 693.875782,54 L687.527149,54 Z M691.297657,47.3505859 L691.297657,51.0996094 L693.76836,51.0996094 C694.448702,51.0996094 694.971483,50.9438492 695.336719,50.6323242 C695.701955,50.3207992 695.884571,49.8821643 695.884571,49.3164062 C695.884571,48.0130143 695.236465,47.3577474 693.940235,47.3505859 L691.297657,47.3505859 Z M691.297657,44.8798828 L693.263477,44.8798828 C694.087049,44.8727213 694.674282,44.7223322 695.025196,44.4287109 C695.376109,44.1350897 695.551563,43.7018258 695.551563,43.1289062 C695.551563,42.4700488 695.361786,41.9956069 694.982227,41.7055664 C694.602668,41.4155259 693.990369,41.2705078 693.145313,41.2705078 L691.297657,41.2705078 L691.297657,44.8798828 Z M703.367579,54 L703.367579,38.359375 L708.405664,38.359375 C709.787833,38.359375 711.030333,38.6726857 712.133204,39.2993164 C713.236074,39.9259471 714.09723,40.8103784 714.7167,41.9526367 C715.336169,43.094895 715.64948,44.3749929 715.656641,45.7929688 L715.656641,46.5126953 C715.656641,47.9449941 715.354072,49.2286727 714.748926,50.3637695 C714.14378,51.4988664 713.291575,52.3868783 712.192286,53.027832 C711.092996,53.6687858 709.866609,53.9928385 708.513086,54 L703.367579,54 Z M707.138086,41.2705078 L707.138086,51.0996094 L708.448633,51.0996094 C709.530019,51.0996094 710.36074,50.7146848 710.940821,49.9448242 C711.520902,49.1749636 711.810938,48.0309321 711.810938,46.5126953 L711.810938,45.8359375 C711.810938,44.3248622 711.520902,43.1862017 710.940821,42.4199219 C710.36074,41.653642 709.515696,41.2705078 708.405664,41.2705078 L707.138086,41.2705078 Z M728.124024,51.078125 L722.957032,51.078125 L722.054688,54 L718.026368,54 L723.762696,38.359375 L727.307618,38.359375 L733.086915,54 L729.03711,54 L728.124024,51.078125 Z M723.859375,48.1669922 L727.22168,48.1669922 L725.535157,42.7421875 L723.859375,48.1669922 Z" id="LAMBDA"></path>
                </g>
            </g>
        </g>
    </g>
</svg>